<svg xmlns="http://www.w3.org/2000/svg" xmlns:xlink="http://www.w3.org/1999/xlink" viewBox="0 0 64 64"><defs><linearGradient id="a" x1="26" x2="26" y1="64.182" y2=".24" gradientUnits="userSpaceOnUse"><stop offset="0" stop-color="#e93e3a"/><stop offset=".35" stop-color="#ed683c"/><stop offset=".7" stop-color="#f3903f"/><stop offset="1" stop-color="#fdc70c"/></linearGradient><linearGradient id="b" x1="7" x2="7" y1="64.182" y2=".24" xlink:href="#a"/><linearGradient id="c" x1="11" x2="11" y1="64.182" y2=".24" xlink:href="#a"/><linearGradient id="d" x1="15" x2="15" y1="64.182" y2=".24" xlink:href="#a"/><linearGradient id="e" x1="44" x2="44" y1="64.182" y2=".24" xlink:href="#a"/><linearGradient id="f" x1="34.808" x2="34.808" y1="64.182" y2=".24" gradientTransform="rotate(45 34.808 34.808)" xlink:href="#a"/><linearGradient id="g" x1="31" x2="31" y1="64.182" y2=".24" xlink:href="#a"/><linearGradient id="h" x1="34.808" x2="34.808" y1="64.182" y2=".24" gradientTransform="rotate(45 34.808 53.193)" xlink:href="#a"/><linearGradient id="i" x1="53.192" x2="53.192" y1="64.182" y2=".24" gradientTransform="rotate(45 53.192 53.192)" xlink:href="#a"/><linearGradient id="j" x1="57" x2="57" y1="64.182" y2=".24" xlink:href="#a"/><linearGradient id="k" x1="53.192" x2="53.192" y1="64.182" y2=".24" gradientTransform="rotate(45 53.192 34.807)" xlink:href="#a"/><linearGradient id="l" x1="16" x2="16" y1="64.182" y2=".24" xlink:href="#a"/><linearGradient id="m" x1="28" x2="28" y1="64.182" y2=".24" xlink:href="#a"/><linearGradient id="n" x1="36" x2="36" y1="64.182" y2=".24" xlink:href="#a"/><linearGradient id="o" x1="32" x2="32" y1="64.182" y2=".24" xlink:href="#a"/><linearGradient id="p" x1="40" x2="40" y1="64.182" y2=".24" xlink:href="#a"/><linearGradient id="q" x1="29" x2="29" y1="64.182" y2=".24" xlink:href="#a"/><linearGradient id="r" x1="35" x2="35" y1="64.182" y2=".24" xlink:href="#a"/></defs><path fill="url(#a)" d="M47,2H5A3.009,3.009,0,0,0,2,5V47a3.009,3.009,0,0,0,3,3H24V48H5a1,1,0,0,1-1-1V12H48V24h2V5A3.009,3.009,0,0,0,47,2Zm1,8H4V5A1,1,0,0,1,5,4H47a1,1,0,0,1,1,1Z"/><rect width="2" height="2" x="6" y="6" fill="url(#b)"/><rect width="2" height="2" x="10" y="6" fill="url(#c)"/><rect width="2" height="2" x="14" y="6" fill="url(#d)"/><path fill="url(#e)" d="M44,35a9,9,0,1,0,9,9A9.01,9.01,0,0,0,44,35Zm0,16a7,7,0,1,1,7-7A7.009,7.009,0,0,1,44,51Z"/><path fill="url(#e)" d="M61.142,40.01l-3.907-.558a13.905,13.905,0,0,0-.657-1.6L58.942,34.7a1,1,0,0,0-.092-1.306L54.606,29.15a1,1,0,0,0-1.306-.092l-3.154,2.364a13.905,13.905,0,0,0-1.6-.657l-.558-3.907A1,1,0,0,0,47,26H41a1,1,0,0,0-.99.858l-.558,3.907a13.905,13.905,0,0,0-1.6.657L34.7,29.058a1,1,0,0,0-1.306.092L29.15,33.394a1,1,0,0,0-.092,1.306l2.364,3.154a13.905,13.905,0,0,0-.657,1.6l-3.907.558A1,1,0,0,0,26,41v6a1,1,0,0,0,.858.99l3.907.558a13.921,13.921,0,0,0,.657,1.6L29.058,53.3a1,1,0,0,0,.092,1.306l4.244,4.244a1,1,0,0,0,1.306.092l3.153-2.364a13.921,13.921,0,0,0,1.6.657l.558,3.907A1,1,0,0,0,41,62h6a1,1,0,0,0,.99-.858l.558-3.907a13.921,13.921,0,0,0,1.6-.657L53.3,58.942a1,1,0,0,0,1.306-.092l4.244-4.244a1,1,0,0,0,.092-1.306l-2.364-3.153a13.921,13.921,0,0,0,.657-1.6l3.907-.558A1,1,0,0,0,62,47V41A1,1,0,0,0,61.142,40.01ZM60,46.133l-3.67.523a1,1,0,0,0-.818.71,11.9,11.9,0,0,1-.987,2.4,1,1,0,0,0,.077,1.081l2.22,2.961-3.016,3.016L50.845,54.6a1,1,0,0,0-1.081-.077,11.9,11.9,0,0,1-2.4.987,1,1,0,0,0-.71.818L46.133,60H41.867l-.523-3.67a1,1,0,0,0-.71-.818,11.9,11.9,0,0,1-2.4-.987,1,1,0,0,0-1.081.077l-2.961,2.22-3.016-3.016,2.22-2.961a1,1,0,0,0,.077-1.081,11.9,11.9,0,0,1-.987-2.4,1,1,0,0,0-.818-.71L28,46.133V41.867l3.67-.523a1,1,0,0,0,.818-.71,11.825,11.825,0,0,1,.988-2.4,1,1,0,0,0-.078-1.081l-2.22-2.961,3.016-3.016,2.961,2.22a1,1,0,0,0,1.081.078,11.825,11.825,0,0,1,2.4-.988,1,1,0,0,0,.71-.818L41.867,28h4.266l.523,3.67a1,1,0,0,0,.71.818,11.825,11.825,0,0,1,2.4.988,1,1,0,0,0,1.081-.078l2.961-2.22,3.016,3.016L54.6,37.155a1,1,0,0,0-.078,1.081,11.825,11.825,0,0,1,.988,2.4,1,1,0,0,0,.818.71l3.67.523Z"/><rect width="2" height="2" x="43" y="30" fill="url(#e)"/><rect width="2" height="2" x="33.808" y="33.808" fill="url(#f)" transform="rotate(-45 34.808 34.808)"/><rect width="2" height="2" x="30" y="43" fill="url(#g)"/><rect width="2" height="2" x="33.808" y="52.192" fill="url(#h)" transform="rotate(-45 34.807 53.192)"/><rect width="2" height="2" x="43" y="56" fill="url(#e)"/><rect width="2" height="2" x="52.192" y="52.192" fill="url(#i)" transform="rotate(-45 53.192 53.192)"/><rect width="2" height="2" x="56" y="43" fill="url(#j)"/><rect width="2" height="2" x="52.192" y="33.808" fill="url(#k)" transform="rotate(-45 53.193 34.808)"/><path fill="url(#l)" d="M22.38,30.21,19,29.24V27.97A4.952,4.952,0,0,0,21,24V23h2V21H21.91a6.017,6.017,0,0,0-2.93-4.2,2.986,2.986,0,0,0-5.96,0A6.017,6.017,0,0,0,10.09,21H9v2h2v1a4.952,4.952,0,0,0,2,3.97v1.27l-3.37.97A5.013,5.013,0,0,0,6,35.02V39a1,1,0,0,0,1,1H25a1,1,0,0,0,1-1V35.02A5.016,5.016,0,0,0,22.38,30.21ZM19,19.36A3.927,3.927,0,0,1,19.86,21H19ZM15,17a1,1,0,0,1,2,0v4H15Zm4,6v1a3,3,0,0,1-6,0V23Zm0,8.33v1.39l-1.38-.35.81-1.21ZM17,28.9v.8l-1,1.5-1-1.5v-.8a5.05,5.05,0,0,0,2,0ZM12.14,21A3.927,3.927,0,0,1,13,19.36V21ZM13,31.32l.57-.16.81,1.21L13,32.72ZM24,38H8V35.02a3.009,3.009,0,0,1,2.18-2.89L11,31.9V34a.99.99,0,0,0,1,1,.986.986,0,0,0,.24-.03L16,34.03l3.76.94A.986.986,0,0,0,20,35a.99.99,0,0,0,1-1V31.9l.83.23A3.012,3.012,0,0,1,24,35.02Z"/><rect width="4" height="2" x="26" y="16" fill="url(#m)"/><rect width="8" height="2" x="32" y="16" fill="url(#n)"/><rect width="4" height="2" x="30" y="20" fill="url(#o)"/><rect width="8" height="2" x="36" y="20" fill="url(#p)"/><rect width="2" height="2" x="28" y="24" fill="url(#q)"/><rect width="6" height="2" x="32" y="24" fill="url(#r)"/></svg>