<svg xmlns="http://www.w3.org/2000/svg" width="32" height="32" viewBox="0 0 32 32"><g transform="translate(763.98 -1003.491)"><rect width="24" height="17" x="-759.98" y="1007.975" fill="#f2f0e7" rx="1" ry="1"/><path fill="#f2f0e7" d="m -750.97982,1024.9916 6,0 c -0.9377,2.8229 0.59123,3.8595 2,4.9832 l -10,0 c 1.73191,-1.2517 3.06667,-2.661 2,-4.9832 z"/><circle cx="16.5" cy="19.5" r=".5" fill="none" stroke="#560f65" stroke-linecap="round" stroke-linejoin="round" stroke-width="2" transform="matrix(.5 0 0 .5 -756.23 1013.34)"/><path fill="none" stroke="#560f65" stroke-linecap="round" stroke-linejoin="round" d="m -754.97982,1029.9748 14,0"/><path fill="#ff5855" d="m -749.71995,1011.1082 c -1.30636,0 -2.3653,0.9054 -2.3653,2.5523 0,1.6469 2.2076,3.2328 4.09995,4.9344 1.89227,-1.7016 4.1098,-3.2671 4.1098,-4.9344 0,-1.6671 -1.05901,-2.5523 -2.36537,-2.5523 -0.68878,0 -1.31219,0.5141 -1.74443,1.021 -0.4321,-0.5038 -1.04826,-1.021 -1.73465,-1.021 z"/><path fill="#ff7a6c" d="m -746.61283,1011.1128 c -0.10996,0 -0.22075,0.023 -0.32683,0.047 1.10062,0.1758 1.40736,1.0186 1.40736,2.498 0,1.5586 -1.40647,3.0239 -3.20491,4.599 0.12648,0.1109 0.24899,0.2149 0.37353,0.3268 1.89219,-1.7015 4.10876,-3.2585 4.10876,-4.9258 0,-1.6671 -1.05155,-2.5447 -2.35791,-2.5447 z"/><path fill="#d94c4a" d="m -749.3772,1011.1128 c 0.10996,0 0.22075,0.023 0.32683,0.047 -1.10063,0.1758 -1.29687,1.0186 -1.29687,2.498 0,1.5586 1.0308,3.2228 2.82925,4.7979 -0.12648,0.1109 0.0162,0.016 -0.10836,0.1279 -1.89219,-1.7015 -4.10876,-3.2585 -4.10876,-4.9258 0,-1.6671 1.05154,-2.5447 2.35791,-2.5447 z"/><path fill="none" stroke="#560f65" stroke-linecap="round" stroke-linejoin="round" d="m -749.71995,1011.1082 c -1.30636,0 -2.3653,0.9054 -2.3653,2.5523 0,1.6469 2.2076,3.2328 4.09995,4.9344 1.89227,-1.7016 4.1098,-3.2671 4.1098,-4.9344 0,-1.6671 -1.05901,-2.5523 -2.36537,-2.5523 -0.68878,0 -1.31219,0.5141 -1.74443,1.021 -0.4321,-0.5038 -1.04826,-1.021 -1.73465,-1.021 z"/><path fill="#fffdf3" d="m -738.45803,1007.9872 c 0.554,0 1,0.446 1,1 l 0,15 c 0,0.554 -0.446,1 -1,1 l 1.3125,0 c 0.554,0 1,-0.446 1,-1 l 0,-15 c 0,-0.554 -0.446,-1 -1,-1 l -1.3125,0 z"/><path fill="#e5e4db" d="m -757.57891,1007.9872 c -0.554,0 -1,0.446 -1,1 l 0,15 c 0,0.554 0.446,1 1,1 l -1.3125,0 c -0.554,0 -1,-0.446 -1,-1 l 0,-15 c 0,-0.554 0.446,-1 1,-1 l 1.3125,0 z"/><rect width="24" height="17" x="-759.484" y="1008.006" fill="none" stroke="#560f65" stroke-linecap="round" stroke-linejoin="round" rx="1" ry="1"/><path fill="none" stroke="#560f65" d="m -759.97982,1020.9748 24,0"/><path fill="#fffdf4" d="m -750.96875,1024.9872 c 0.17778,0.387 0.25886,0.7539 0.3125,1.0938 l 5.4375,0 c 0.0406,-0.3371 0.11545,-0.6887 0.25,-1.0938 z"/><path fill="#e5e4db" d="m -750.96875,1024.9872 c 0.16684,0.3632 0.25549,0.7098 0.3125,1.0313 0.064,-0.32 0.0578,-0.6649 0,-1.0313 l -0.3125,0 z m 5.75,0 c -0.0446,0.3505 -0.0398,0.6481 0,0.9375 0.0458,-0.293 0.13633,-0.5953 0.25,-0.9375 l -0.25,0 z m -6.46875,3.9063 c -0.37313,0.3811 -0.80784,0.7516 -1.28125,1.0937 l 10,0 c -0.4371,-0.3487 -0.89828,-0.7059 -1.28125,-1.0937 l -7.4375,0 z"/><path fill="none" stroke="#560f65" stroke-linecap="round" stroke-linejoin="round" d="m -750.97982,1024.9916 6,0 c -0.9377,2.8229 0.59123,3.8595 2,4.9832 l -10,0 c 1.73191,-1.2517 3.06667,-2.661 2,-4.9832 z"/></g></svg>