<?xml version="1.0" encoding="utf-8"?>
<!-- Generator: Adobe Illustrator 25.2.3, SVG Export Plug-In . SVG Version: 6.00 Build 0)  -->
<svg version="1.1" id="Layer_1" xmlns="http://www.w3.org/2000/svg" xmlns:xlink="http://www.w3.org/1999/xlink" x="0px" y="0px"
	 viewBox="0 0 25.1 25.3" style="enable-background:new 0 0 25.1 25.3;" xml:space="preserve">
<style type="text/css">
	.st0{fill:#F2F0E7;}
	.st1{fill:none;stroke:#560F65;stroke-linecap:round;stroke-linejoin:round;stroke-miterlimit:2;}
	.st2{fill:none;stroke:#560F65;stroke-linecap:round;stroke-linejoin:round;}
	.st3{fill:#FF5855;}
	.st4{fill:#FF7A6C;}
	.st5{fill:#D94C4A;}
	.st6{fill:#FFFDF3;}
	.st7{fill:#E5E4DB;}
	.st8{fill:none;stroke:#560F65;}
	.st9{fill:#FFFDF4;}
</style>
<g transform="translate(763.98 -1003.491)">
	<path class="st0" d="M-763,1005.2h22c0.6,0,1,0.4,1,1v15c0,0.6-0.4,1-1,1h-22c-0.6,0-1-0.4-1-1v-15
		C-764,1005.6-763.5,1005.2-763,1005.2z"/>
	<path class="st0" d="M-755,1022.2h6c-0.9,2.8,0.6,3.9,2,5h-10C-755.2,1025.9-753.9,1024.5-755,1022.2z"/>
	<circle class="st1" cx="-752" cy="1020.3" r="0.2"/>
	<path class="st2" d="M-759,1027.2h14"/>
	<path class="st3" d="M-753.7,1008.3c-1.3,0-2.4,0.9-2.4,2.6s2.2,3.2,4.1,4.9c1.9-1.7,4.1-3.3,4.1-4.9c0-1.7-1.1-2.6-2.4-2.6
		c-0.7,0-1.3,0.5-1.7,1C-752.4,1008.8-753,1008.3-753.7,1008.3z"/>
	<path class="st4" d="M-750.6,1008.3c-0.1,0-0.2,0-0.3,0c1.1,0.2,1.4,1,1.4,2.5c0,1.6-1.4,3-3.2,4.6c0.1,0.1,0.2,0.2,0.4,0.3
		c1.9-1.7,4.1-3.3,4.1-4.9C-748.3,1009.2-749.3,1008.3-750.6,1008.3L-750.6,1008.3z"/>
	<path class="st5" d="M-753.4,1008.3c0.1,0,0.2,0,0.3,0c-1.1,0.2-1.3,1-1.3,2.5c0,1.6,1,3.2,2.8,4.8c-0.1,0.1,0,0-0.1,0.1
		c-1.9-1.7-4.1-3.3-4.1-4.9C-755.7,1009.2-754.7,1008.3-753.4,1008.3L-753.4,1008.3z"/>
	<path class="st2" d="M-753.7,1008.3c-1.3,0-2.4,0.9-2.4,2.6s2.2,3.2,4.1,4.9c1.9-1.7,4.1-3.3,4.1-4.9c0-1.7-1.1-2.6-2.4-2.6
		c-0.7,0-1.3,0.5-1.7,1C-752.4,1008.8-753,1008.3-753.7,1008.3z"/>
	<path class="st6" d="M-742.5,1005.2c0.6,0,1,0.4,1,1v15c0,0.6-0.4,1-1,1h1.3c0.6,0,1-0.4,1-1v-15c0-0.6-0.4-1-1-1H-742.5z"/>
	<path class="st7" d="M-761.6,1005.2c-0.6,0-1,0.4-1,1v15c0,0.6,0.4,1,1,1h-1.3c-0.6,0-1-0.4-1-1v-15c0-0.6,0.4-1,1-1H-761.6z"/>
	<path class="st2" d="M-762.5,1005.2h22c0.6,0,1,0.4,1,1v15c0,0.6-0.4,1-1,1h-22c-0.6,0-1-0.4-1-1v-15
		C-763.5,1005.6-763,1005.2-762.5,1005.2z"/>
	<path class="st8" d="M-764,1018.2h24"/>
	<path class="st9" d="M-755,1022.2c0.2,0.4,0.3,0.8,0.3,1.1h5.4c0-0.3,0.1-0.7,0.2-1.1H-755z"/>
	<path class="st7" d="M-755,1022.2c0.2,0.4,0.3,0.7,0.3,1c0.1-0.3,0.1-0.7,0-1H-755z M-749.2,1022.2c0,0.4,0,0.6,0,0.9
		c0-0.3,0.1-0.6,0.2-0.9H-749.2z M-755.7,1026.1c-0.4,0.4-0.8,0.8-1.3,1.1h10c-0.4-0.3-0.9-0.7-1.3-1.1H-755.7z"/>
	<path class="st2" d="M-755,1022.2h6c-0.9,2.8,0.6,3.9,2,5h-10C-755.2,1025.9-753.9,1024.5-755,1022.2z"/>
</g>
</svg>
