<svg id="SvgjsSvg1001" width="288" height="288" xmlns="http://www.w3.org/2000/svg" version="1.1" xmlns:xlink="http://www.w3.org/1999/xlink" xmlns:svgjs="http://svgjs.com/svgjs"><defs id="SvgjsDefs1002"></defs><g id="SvgjsG1008" transform="matrix(1,0,0,1,0,0)"><svg xmlns="http://www.w3.org/2000/svg" enable-background="new 0 0 68 68" viewBox="0 0 68 68" width="288" height="288"><path d="M55.3,2H12.7c-2.2,0-3.9,1.8-3.9,3.9v37c0,2.2,1.8,3.9,3.9,3.9h42.7c2.2,0,3.9-1.8,3.9-3.9v-37C59.3,3.8,57.5,2,55.3,2z
		 M12.3,5.9c0-0.2,0.1-0.3,0.3-0.3h42.7c0.2,0,0.3,0.1,0.3,0.3v37c0,0.2-0.1,0.3-0.3,0.3H12.7c-0.2,0-0.3-0.1-0.3-0.3V5.9z" fill="#85e2fc" class="color000 svgShape"></path><polygon points="31 60.3 29.7 66 38.2 66 36.7 60.3" fill="#85e2fc" class="color000 svgShape"></polygon><path d="M63.2 61.9l-4.4-12c-.4-1.2-1.6-2-2.9-2H12c-1.3 0-2.5.8-2.9 2l-4.4 12C4 63.9 5.5 66 7.7 66h20.2l1.6-6.8c.1-.4.5-.7.9-.7h7.1c.4 0 .8.3.9.7l1.9 6.8h20.3C62.4 66 64 63.9 63.2 61.9zM45.7 24.4c.3-.4.6-.7.9-1.1 2.2-2.8 2.9-5.4 1.8-7.2-.6-1-1.9-2.2-5.1-2.2-1.1 0-2.2.2-3.5.4-1.3-4-3.4-6.6-5.9-6.6-2.5 0-4.6 2.5-5.9 6.6-1.2-.3-2.4-.4-3.5-.4-3.2 0-4.5 1.2-5.1 2.2-1.2 2.1-.1 5.2 2.7 8.3-2.8 3.1-3.9 6.2-2.7 8.3.6 1 1.9 2.2 5.1 2.2 1.1 0 2.2-.2 3.5-.4 1.3 4 3.4 6.6 5.9 6.6 2.5 0 4.6-2.5 5.9-6.6 1.2.3 2.4.4 3.5.4 3.2 0 4.5-1.2 5.1-2.2 1.1-1.8.4-4.4-1.8-7.2C46.3 25.2 46 24.8 45.7 24.4zM24.6 33.2c-1.8 0-3-.5-3.5-1.3-.7-1.3.2-3.6 2.4-6.1 1 .9 2.1 1.9 3.4 2.8.2 1.5.4 3 .7 4.3C26.6 33.1 25.6 33.2 24.6 33.2zM26.7 26.1c-.7-.6-1.3-1.1-1.9-1.7.6-.6 1.2-1.1 1.9-1.7 0 .5 0 1.1 0 1.7C26.7 25 26.7 25.6 26.7 26.1zM26.9 20.4c-1.3.9-2.4 1.8-3.4 2.8-2.3-2.6-3.2-4.9-2.4-6.1.5-.8 1.7-1.3 3.5-1.3.9 0 1.9.1 3 .3C27.3 17.4 27.1 18.8 26.9 20.4zM39.1 19c-.5-.3-1-.6-1.4-.9-.5-.3-1-.5-1.5-.8.8-.3 1.6-.6 2.4-.8C38.8 17.3 39 18.1 39.1 19zM34 9.6c1.5 0 3 1.9 4.1 5.2-1.3.4-2.7.9-4.1 1.5-1.4-.6-2.8-1.1-4.1-1.5C31 11.5 32.5 9.6 34 9.6zM29.4 16.5c.8.2 1.6.5 2.4.8-.5.3-1 .5-1.5.8-.5.3-1 .6-1.4.9C29 18.1 29.2 17.3 29.4 16.5zM28.9 29.9c.5.3.9.6 1.4.9.5.3 1 .5 1.5.8-.8.3-1.6.6-2.4.8C29.2 31.6 29 30.8 28.9 29.9zM34 39.3c-1.5 0-3-1.9-4.1-5.2 1.3-.4 2.7-.9 4.1-1.5 1.4.6 2.8 1.1 4.1 1.5C37 37.4 35.5 39.3 34 39.3zM38.6 32.4c-.8-.2-1.6-.5-2.4-.8.5-.3 1-.5 1.5-.8.5-.3 1-.6 1.4-.9C39 30.8 38.8 31.6 38.6 32.4zM39.4 27.5c-.8.6-1.7 1.1-2.6 1.7-.9.5-1.8 1-2.7 1.4-.9-.4-1.8-.9-2.7-1.4-.9-.5-1.8-1.1-2.6-1.7-.1-1-.1-2-.1-3.1 0-1.1 0-2.1.1-3.1.8-.6 1.7-1.1 2.6-1.7.9-.5 1.8-1 2.7-1.4.9.4 1.8.9 2.7 1.4.9.5 1.8 1.1 2.6 1.7.1 1 .1 2 .1 3.1C39.5 25.5 39.5 26.6 39.4 27.5zM43.4 15.7c1.8 0 3 .5 3.5 1.3.6 1.1 0 3-1.7 5.2-.2.3-.5.6-.8.9-1-1-2.1-1.9-3.4-2.8-.2-1.5-.4-3-.7-4.3C41.4 15.8 42.4 15.7 43.4 15.7zM41.3 22.8c.7.6 1.3 1.1 1.9 1.7-.6.6-1.2 1.1-1.9 1.7 0-.5 0-1.1 0-1.7C41.3 23.9 41.3 23.3 41.3 22.8zM46.9 31.9c-.5.8-1.7 1.3-3.5 1.3-.9 0-1.9-.1-3-.3.3-1.3.6-2.8.7-4.3 1.2-.9 2.4-1.8 3.4-2.8.3.3.5.6.8.9C46.9 28.9 47.5 30.8 46.9 31.9z" fill="#85e2fc" class="color000 svgShape"></path><path d="M37.4,24.4c0,1.9-1.5,3.4-3.4,3.4s-3.4-1.5-3.4-3.4c0-1.9,1.5-3.4,3.4-3.4S37.4,22.6,37.4,24.4z" fill="#85e2fc" class="color000 svgShape"></path></svg></g></svg>